<?xml version="1.0" standalone="no"?>
<!DOCTYPE svg PUBLIC "-//W3C//DTD SVG 20010904//EN"
 "http://www.w3.org/TR/2001/REC-SVG-20010904/DTD/svg10.dtd">
<svg version="1.0" xmlns="http://www.w3.org/2000/svg"
 width="662.000000pt" height="662.000000pt" viewBox="0 0 662.000000 662.000000"
 preserveAspectRatio="xMidYMid meet">
<metadata>
Created by potrace 1.11, written by Peter Selinger 2001-2013
</metadata>
<g transform="translate(0.000000,662.000000) scale(0.100000,-0.100000)"
fill="#000000" stroke="none">
<path d="M3038 6605 c-2 -2 -41 -6 -88 -10 -116 -9 -154 -14 -235 -30 -38 -7
-101 -19 -140 -26 -74 -13 -276 -77 -361 -114 -64 -28 -249 -134 -334 -191
-70 -46 -272 -214 -358 -298 -69 -65 -148 -164 -240 -299 -72 -104 -120 -225
-153 -382 -16 -77 -17 -81 -24 -135 -3 -25 -8 -56 -10 -70 -2 -14 -6 -72 -10
-130 -4 -58 -8 -121 -10 -140 -9 -81 -6 -310 5 -375 6 -38 27 -124 46 -190 20
-66 51 -176 69 -245 19 -69 56 -189 84 -267 28 -79 47 -143 43 -144 -31 -5
-39 -6 -54 -7 -26 -3 -60 -59 -60 -98 0 -24 10 -50 30 -77 16 -23 33 -55 37
-72 5 -16 9 -33 10 -37 2 -5 3 -9 5 -10 1 -2 3 -10 5 -18 2 -8 10 -34 19 -58
8 -23 16 -46 16 -50 0 -4 5 -25 11 -47 6 -22 22 -89 34 -150 32 -152 65 -297
70 -305 2 -4 7 -27 10 -51 3 -24 8 -57 11 -72 3 -16 7 -38 9 -50 2 -12 6 -39
9 -59 13 -82 18 -114 21 -143 2 -16 6 -43 9 -60 3 -16 8 -52 11 -80 5 -41 24
-139 40 -205 1 -8 15 -56 29 -106 15 -50 29 -102 32 -115 11 -52 19 -73 62
-159 75 -154 194 -346 256 -415 20 -22 53 -65 73 -95 21 -30 72 -89 114 -130
181 -176 393 -378 539 -512 14 -13 56 -59 94 -103 119 -139 177 -180 318 -231
97 -34 367 -39 548 -9 14 2 50 7 80 10 165 18 487 173 588 284 27 30 116 185
110 193 -5 9 47 98 116 198 92 134 211 300 224 316 5 5 15 21 22 35 7 13 16
26 19 29 3 3 28 39 55 80 27 41 88 127 137 191 104 137 146 213 187 334 79
238 106 378 105 560 0 81 -9 291 -17 390 -1 11 4 30 11 41 8 12 15 50 18 86 4
62 28 151 47 175 5 6 38 69 73 141 57 116 99 231 111 302 3 14 9 52 15 85 16
88 19 126 18 265 0 150 -1 168 -24 279 -8 42 -46 155 -63 188 -15 31 -36 43
-77 47 -32 4 -67 -22 -110 -80 -44 -59 -94 -99 -139 -110 -26 -6 -28 -5 -22
12 4 10 20 60 36 109 25 82 28 101 25 220 -3 141 -5 162 -36 299 -11 50 -23
102 -25 116 -3 14 -14 61 -25 105 -10 44 -21 89 -23 100 -2 11 -18 79 -36 150
-17 72 -33 139 -36 150 -2 11 -7 36 -11 55 -9 46 -10 50 -13 53 -1 1 -3 9 -5
17 -39 165 -96 329 -137 395 -74 117 -263 319 -383 410 -49 38 -198 117 -290
154 -11 5 -33 14 -50 21 -98 40 -233 82 -300 94 -174 30 -276 47 -305 51 -19
3 -64 9 -100 14 -58 8 -355 12 -362 6z"/>
</g>
</svg>
